<svg width="24" height="24" viewBox="0 0 24 24" fill="none" xmlns="http://www.w3.org/2000/svg">
<path d="M17.2338 15.328C17.0676 14.1985 16.502 13.166 15.6397 12.4178C14.7774 11.6696 13.6755 11.2553 12.5338 11.25H11.4698C10.3282 11.2553 9.22625 11.6696 8.36394 12.4178C7.50163 13.166 6.93605 14.1985 6.76983 15.328L6.25983 18.894C6.24354 19.0093 6.2543 19.1267 6.29127 19.2371C6.32824 19.3475 6.3904 19.4478 6.47283 19.53C6.67283 19.73 7.89983 20.75 12.0028 20.75C16.1058 20.75 17.3298 19.734 17.5328 19.53C17.6153 19.4478 17.6774 19.3475 17.7144 19.2371C17.7514 19.1267 17.7621 19.0093 17.7458 18.894L17.2338 15.328ZM7.56083 11.8C6.59436 12.691 5.96553 13.8886 5.78083 15.19L5.41083 17.75C2.44083 17.73 1.54083 16.65 1.39083 16.43C1.33285 16.3501 1.29147 16.2593 1.26914 16.1632C1.24681 16.067 1.24399 15.9673 1.26083 15.87L1.48083 14.63C1.59545 13.982 1.86465 13.3711 2.2656 12.8492C2.66655 12.3274 3.18743 11.9099 3.78408 11.6322C4.38072 11.3544 5.03553 11.2247 5.69299 11.2539C6.35045 11.2831 6.99117 11.4705 7.56083 11.8ZM22.7408 15.87C22.7577 15.9673 22.7548 16.067 22.7325 16.1632C22.7102 16.2593 22.6688 16.3501 22.6108 16.43C22.4608 16.65 21.5608 17.73 18.5908 17.75L18.2208 15.19C18.0361 13.8886 17.4073 12.691 16.4408 11.8C17.0105 11.4705 17.6512 11.2831 18.3087 11.2539C18.9661 11.2247 19.6209 11.3544 20.2176 11.6322C20.8142 11.9099 21.3351 12.3274 21.7361 12.8492C22.137 13.3711 22.4062 13.982 22.5208 14.63L22.7408 15.87ZM7.73083 9.6C7.47911 9.957 7.14494 10.248 6.7567 10.4482C6.36847 10.6484 5.93764 10.7519 5.50083 10.75C5.06509 10.75 4.63558 10.6465 4.24771 10.4479C3.85983 10.2493 3.5247 9.96145 3.26991 9.60795C3.01513 9.25446 2.84799 8.84548 2.78228 8.41472C2.71657 7.98397 2.75416 7.54376 2.89195 7.13037C3.02974 6.71699 3.2638 6.34227 3.57483 6.03709C3.88585 5.73191 4.26495 5.50501 4.68087 5.37509C5.09679 5.24516 5.53763 5.21594 5.96707 5.28981C6.3965 5.36369 6.80224 5.53856 7.15083 5.8C7.05056 6.1921 7.00017 6.59529 7.00083 7C7.00159 7.91715 7.2541 8.81649 7.73083 9.6ZM21.2508 8C21.2511 8.36121 21.1801 8.71893 21.042 9.05269C20.9039 9.38646 20.7014 9.68972 20.446 9.94513C20.1905 10.2005 19.8873 10.4031 19.5535 10.5412C19.2198 10.6793 18.862 10.7503 18.5008 10.75C18.064 10.7519 17.6332 10.6484 17.245 10.4482C16.8567 10.248 16.5226 9.957 16.2708 9.6C16.7476 8.81649 17.0001 7.91715 17.0008 7C17.0015 6.59529 16.9511 6.1921 16.8508 5.8C17.2594 5.49358 17.7452 5.30698 18.2539 5.26111C18.7625 5.21525 19.2739 5.31193 19.7307 5.54033C20.1875 5.76872 20.5716 6.11981 20.8401 6.55424C21.1086 6.98867 21.2508 7.48929 21.2508 8Z" fill="#333333" fill-opacity="0.6"/>
<path d="M12 10.75C14.0711 10.75 15.75 9.07107 15.75 7C15.75 4.92893 14.0711 3.25 12 3.25C9.92893 3.25 8.25 4.92893 8.25 7C8.25 9.07107 9.92893 10.75 12 10.75Z" fill="#333333" fill-opacity="0.6"/>
</svg>
