<svg width="24" height="24" viewBox="0 0 24 24" fill="none" xmlns="http://www.w3.org/2000/svg">
<path d="M21.2871 16.3058C23.2525 11.5695 20.9129 5.77576 16.2134 3.72451C16.1685 3.70408 16.1201 3.69267 16.0709 3.69093C16.0217 3.6892 15.9726 3.69718 15.9265 3.71442C15.8803 3.73166 15.838 3.75781 15.802 3.79139C15.766 3.82497 15.7369 3.86532 15.7165 3.91014C15.696 3.95495 15.6846 4.00335 15.6829 4.05257C15.6812 4.1018 15.6892 4.15088 15.7064 4.19702C15.7236 4.24316 15.7498 4.28545 15.7834 4.32148C15.8169 4.35751 15.8573 4.38658 15.9021 4.40701C17.4892 5.12981 18.8353 6.29342 19.78 7.75935C20.7247 9.22528 21.2283 10.9318 21.2309 12.6758C21.2319 13.8038 21.0207 14.922 20.6084 15.972C20.1904 15.8703 19.7497 15.9265 19.3706 16.1297C18.9915 16.333 18.7008 16.669 18.5542 17.0734C18.4075 17.4778 18.4153 17.922 18.5761 18.321C18.7368 18.72 19.0392 19.0456 19.4252 19.2353C19.8112 19.4251 20.2536 19.4658 20.6677 19.3495C21.0818 19.2332 21.4384 18.9681 21.6692 18.6051C21.8999 18.2421 21.9885 17.8066 21.918 17.3823C21.8475 16.958 21.6228 16.5747 21.2871 16.3058ZM2.73586 13.8758C3.34148 13.8266 3.02086 13.0695 3.07711 12.6758C3.07969 10.5331 3.83879 8.46011 5.22053 6.82246C6.60228 5.18481 8.51792 4.08766 10.6296 3.72451C10.745 4.12963 11.003 4.47935 11.356 4.70914C11.709 4.93893 12.1333 5.03329 12.5504 4.97481C12.9676 4.91633 13.3495 4.70895 13.6257 4.39094C13.9019 4.07292 14.0538 3.66574 14.0534 3.24451C14.014 1.10964 10.9424 0.879012 10.5846 2.97451C8.13643 3.37605 5.92992 4.68662 4.40603 6.64431C2.88214 8.60201 2.15311 11.0627 2.36461 13.5345C2.37225 13.6277 2.4147 13.7145 2.4835 13.7777C2.5523 13.841 2.64241 13.876 2.73586 13.8758ZM17.2536 20.181C15.3638 21.4659 13.0587 21.9901 10.7991 21.6488C8.53954 21.3075 6.49207 20.1259 5.06611 18.3401C5.34921 18.0175 5.5032 17.6017 5.49853 17.1725C5.49385 16.7433 5.33085 16.331 5.04079 16.0146C4.75074 15.6982 4.35406 15.5001 3.92689 15.4583C3.49972 15.4164 3.07214 15.5338 2.72621 15.7879C2.38028 16.042 2.14037 16.4149 2.05251 16.835C1.96465 17.2551 2.03503 17.6929 2.25015 18.0643C2.46527 18.4357 2.80998 18.7146 3.21812 18.8475C3.62626 18.9803 4.06908 18.9578 4.46161 18.7841C6.00244 20.7267 8.22123 22.0144 10.6723 22.3885C13.1234 22.7626 15.6253 22.1954 17.6755 20.8009C17.7553 20.744 17.8096 20.658 17.8268 20.5616C17.8441 20.4651 17.8228 20.3657 17.7677 20.2846C17.7125 20.2036 17.6279 20.1474 17.5318 20.128C17.4357 20.1087 17.3358 20.1277 17.2536 20.181Z" fill="#333333" fill-opacity="0.6"/>
<path d="M11.9991 7.16631C9.62155 7.13256 8.2903 10.0576 9.8578 11.8163C10.1246 12.1219 10.4537 12.3668 10.8231 12.5347C11.1924 12.7025 11.5934 12.7894 11.9991 12.7894C12.4047 12.7894 12.8057 12.7025 13.175 12.5347C13.5444 12.3668 13.8735 12.1219 14.1403 11.8163C15.6965 10.0576 14.3728 7.13256 11.9991 7.16631Z" fill="#333333" fill-opacity="0.6"/>
<path d="M14.2632 12.735C13.8952 13.0338 13.4716 13.2567 13.0169 13.391C12.5623 13.5253 12.0855 13.5682 11.6142 13.5173C11.1429 13.4664 10.6863 13.3227 10.2707 13.0944C9.85523 12.8662 9.48902 12.558 9.19322 12.1875C8.60355 12.5767 8.10041 13.0832 7.71523 13.6755C7.33004 14.2678 7.07107 14.9332 6.95447 15.63C6.93084 15.7777 6.93934 15.9287 6.9794 16.0728C7.01947 16.2169 7.09014 16.3506 7.18662 16.4649C7.28309 16.5791 7.40308 16.6712 7.5384 16.7349C7.67372 16.7986 7.82118 16.8323 7.97072 16.8337H16.022C16.1719 16.8329 16.3198 16.7997 16.4557 16.7363C16.5915 16.6729 16.712 16.5809 16.8089 16.4665C16.9058 16.3522 16.9768 16.2182 17.0171 16.0738C17.0573 15.9294 17.0658 15.778 17.042 15.63C16.9237 14.9333 16.6636 14.2682 16.2779 13.6761C15.8922 13.0839 15.389 12.5773 14.7995 12.1875C14.6421 12.3898 14.4622 12.5735 14.2632 12.735Z" fill="#333333" fill-opacity="0.6"/>
</svg>
