<svg width="24" height="24" viewBox="0 0 24 24" fill="none" xmlns="http://www.w3.org/2000/svg">
<path d="M0 17.6758V19.082C0.751219 19.082 1.45753 19.3746 1.98877 19.9058C2.51995 20.437 2.8125 21.1433 2.8125 21.8945H4.21875C4.21875 20.7677 3.77995 19.7082 2.98312 18.9115C2.1863 18.1146 1.12688 17.6758 0 17.6758Z" fill="#333333" fill-opacity="0.6"/>
<path d="M0 14.8635V16.2697C1.50248 16.2697 2.91506 16.8548 3.97748 17.9173C5.03991 18.9797 5.625 20.3923 5.625 21.8947H7.03125C7.03125 20.0167 6.29986 18.2509 4.97184 16.9229C3.64383 15.5949 1.87809 14.8635 0 14.8635ZM5.9662 15.9285C7.55986 17.5222 8.4375 19.641 8.4375 21.8947H9.84375C9.84375 19.2763 8.82802 16.8141 6.9833 14.9575H4.80581C5.2206 15.2462 5.60893 15.5711 5.9662 15.9285ZM0 12.051V13.4572C0.476016 13.4572 0.945938 13.4969 1.40625 13.5736V12.1506C0.940431 12.0843 0.47051 12.051 0 12.051ZM11.25 21.8947H12.6562C12.6562 19.3921 11.9341 17.0008 10.5895 14.9575H8.85806C10.4087 16.9293 11.25 19.3473 11.25 21.8947ZM0 9.2385V10.6448C0.471469 10.6448 0.940922 10.6744 1.40625 10.7327V9.31636C0.939295 9.26449 0.469827 9.23849 0 9.2385ZM15.862 13.5512V11.7451H13.085C11.8117 11.7451 10.7757 10.7091 10.7757 9.43575C10.7757 8.16239 11.8117 7.12645 13.085 7.12645H15.862V5.32031H2.8125V13.5512H15.862V13.5512ZM4.21875 6.72661H5.625V8.13286H4.21875V6.72661ZM4.21875 10.7387H9.14062V12.145H4.21875V10.7387Z" fill="#333333" fill-opacity="0.6"/>
<path d="M18.7225 2.10742H11.6682C11.324 2.10742 11.0145 2.29872 10.8605 2.60659L10.207 3.91352H17.268V8.53216H13.0848C12.5869 8.53216 12.1818 8.93725 12.1818 9.4352C12.1818 9.93316 12.5869 10.3383 13.0848 10.3383H16.7771L16.9538 10.4557C17.6295 10.9043 18.4167 11.1414 19.2305 11.1414C20.0442 11.1414 20.8314 10.9043 21.5071 10.4557L21.6839 10.3383H23.9998V4.5167H21.9349L18.7225 2.10742Z" fill="#333333" fill-opacity="0.6"/>
</svg>
