<svg width="24" height="24" viewBox="0 0 24 24" fill="none" xmlns="http://www.w3.org/2000/svg">
<path d="M21.0246 3.45647C21.0246 1.82447 19.6806 0.480469 18.0486 0.480469H10.4646C9.69656 0.480469 8.92856 0.768469 8.44856 1.34447L3.93656 5.56847C3.36056 6.04847 2.97656 6.91247 2.97656 7.77647V20.6405C2.97656 22.2725 4.32056 23.6165 5.95256 23.6165H18.0486C19.6806 23.6165 21.0246 22.2725 21.0246 20.6405V3.45647ZM4.89656 7.68047C4.89656 7.39247 5.08856 7.10447 5.28056 6.91247L9.69656 2.68847C9.79256 2.59247 10.0806 2.40047 10.4646 2.40047H10.5606V6.04847C10.5606 7.00847 9.79256 7.87247 8.73656 7.87247L4.89656 7.68047ZM17.8566 15.5525L14.2086 19.6805C14.0166 19.8725 13.7286 19.9685 13.5366 19.9685H13.4406C13.1526 19.9685 12.8646 19.7765 12.6726 19.5845L10.6566 16.5125L7.58456 19.7765C7.20056 20.1605 6.62456 20.1605 6.24056 19.7765C5.85656 19.3925 5.85656 18.8165 6.24056 18.4325L10.1766 14.3045C10.3686 14.1125 10.6566 14.0165 10.9446 14.0165C11.2326 14.0165 11.5206 14.2085 11.7126 14.4005L13.7286 17.4725L16.5126 14.3045C16.8966 13.9205 17.4726 13.9205 17.8566 14.2085C18.2406 14.4965 18.2406 15.1685 17.8566 15.5525ZM17.5686 9.69647H13.4406C12.8646 9.69647 12.4806 9.31247 12.4806 8.73647C12.4806 8.16047 12.8646 7.77647 13.4406 7.77647H17.5686C18.0486 7.77647 18.5286 8.16047 18.5286 8.73647C18.5286 9.31247 18.1446 9.69647 17.5686 9.69647ZM17.5686 5.85647H13.4406C12.8646 5.85647 12.4806 5.47247 12.4806 4.89647C12.4806 4.32047 12.8646 3.93647 13.4406 3.93647H17.5686C18.0486 3.93647 18.5286 4.32047 18.5286 4.89647C18.5286 5.47247 18.1446 5.85647 17.5686 5.85647Z" fill="#333333" fill-opacity="0.6"/>
</svg>
